<?xml version="1.0" standalone="no"?>
<!DOCTYPE svg PUBLIC "-//W3C//DTD SVG 20010904//EN"
 "http://www.w3.org/TR/2001/REC-SVG-20010904/DTD/svg10.dtd">
<svg version="1.0" xmlns="http://www.w3.org/2000/svg"
 width="500.000000pt" height="500.000000pt" viewBox="0 0 500.000000 500.000000"
 preserveAspectRatio="xMidYMid meet">
<metadata>
Created by potrace 1.11, written by Peter Selinger 2001-2013
</metadata>
<g transform="translate(0.000000,500.000000) scale(0.100000,-0.100000)"
fill="#000000" stroke="none">
<path d="M0 2500 l0 -2500 2500 0 2500 0 0 2500 0 2500 -2500 0 -2500 0 0
-2500z m1815 1515 l25 -24 0 -258 c-1 -271 -2 -277 -47 -301 -16 -9 -219 -12
-766 -12 -738 0 -745 0 -771 21 l-26 20 0 267 c0 259 1 266 22 289 l21 23 759
0 759 0 24 -25z m1100 -801 c40 -16 45 -52 45 -308 l0 -244 -26 -31 -26 -31
-753 0 -754 0 -28 24 -28 24 0 260 0 260 24 26 24 26 753 0 c414 0 760 -3 769
-6z m-1100 -839 l25 -24 0 -259 0 -259 -26 -27 -27 -26 -752 0 c-746 0 -753 0
-779 21 l-26 20 0 269 0 269 26 20 c26 21 33 21 781 21 l754 0 24 -25z m-701
-816 l26 -20 0 -269 0 -269 -26 -20 c-26 -20 -37 -21 -430 -21 l-403 0 -28 24
-28 24 0 262 0 262 28 24 28 24 403 0 c393 0 404 -1 430 -21z m3637 -5 l24
-26 0 -258 0 -258 -24 -26 -24 -26 -759 0 -759 0 -24 25 -25 24 0 261 0 261
25 24 24 25 759 0 759 0 24 -26z"/>
</g>
</svg>
